<svg width="16" height="18" viewBox="0 0 16 18" fill="none" xmlns="http://www.w3.org/2000/svg">
<path fill-rule="evenodd" clip-rule="evenodd" d="M8.05041 15.686C3.89203 15.686 0.520996 12.315 0.520996 8.15661C0.520996 3.99823 3.89203 0.627197 8.05041 0.627197C12.2088 0.627197 15.5798 3.99823 15.5798 8.15661C15.5798 12.315 12.2088 15.686 8.05041 15.686ZM8.05041 14.2743C11.4291 14.2743 14.1681 11.5353 14.1681 8.15661C14.1681 4.77793 11.4291 2.03896 8.05041 2.03896C4.67172 2.03896 1.93276 4.77793 1.93276 8.15661C1.93276 11.5353 4.67172 14.2743 8.05041 14.2743ZM8.75629 7.68602H11.8151V9.09779H7.34453V3.45073H8.75629V7.68602Z" fill="#8298AB"/>
</svg>
