<svg width="15" height="15" viewBox="0 0 15 15" fill="none" xmlns="http://www.w3.org/2000/svg">
<path d="M13.125 5.625V2.26318C13.125 2.01445 13.0263 1.77627 12.8505 1.6002L11.5245 0.274512C11.3487 0.0987305 11.1103 0 10.8615 0H2.8125C2.29482 0 1.875 0.419824 1.875 0.9375V5.625C0.839356 5.625 0 6.46436 0 7.5V10.7812C0 11.0402 0.209766 11.25 0.46875 11.25H1.875V14.0625C1.875 14.5802 2.29482 15 2.8125 15H12.1875C12.7052 15 13.125 14.5802 13.125 14.0625V11.25H14.5312C14.7902 11.25 15 11.0402 15 10.7812V7.5C15 6.46436 14.1606 5.625 13.125 5.625ZM11.25 13.125H3.75V10.3125H11.25V13.125ZM11.25 6.5625H3.75V1.875H9.375V3.28125C9.375 3.54023 9.58477 3.75 9.84375 3.75H11.25V6.5625ZM12.6562 8.67188C12.2681 8.67188 11.9531 8.35693 11.9531 7.96875C11.9531 7.58027 12.2681 7.26562 12.6562 7.26562C13.0444 7.26562 13.3594 7.58027 13.3594 7.96875C13.3594 8.35693 13.0444 8.67188 12.6562 8.67188Z" fill="white"/>
</svg>
