<svg width="90" height="90" viewBox="0 0 90 90" fill="none" xmlns="http://www.w3.org/2000/svg">
<path d="M47.5628 31.4464L89.3471 38.2606C89.7221 38.3215 90 38.6124 90 38.9962V80.4411C90 81.7272 89.8086 82.4905 88.5103 83.0322L60.1362 94.7825C59.3832 95.0966 59.2855 95.0199 58.5332 94.868L19.2485 86.853C17.6693 86.5341 16.8307 85.9781 16.7528 84.2481L16.6804 74.0289C16.6769 73.1432 18.0313 73.1379 18.0348 74.0236L18.1071 84.19C18.155 85.2455 18.5623 85.3405 19.5141 85.5326L58.622 93.4302V49.4515L43.5617 46.9871L43.5617 63.1418L37.7235 58.5329L32.0441 61.1625V45.0986L17.8393 42.7695L17.947 58.5931C17.9505 59.4789 16.5961 59.4841 16.5926 58.5984L16.4838 42.6214C16.478 41.7791 16.3749 41.4128 17.3516 41.0891L46.0236 31.5868C46.6129 31.3915 46.9649 31.3489 47.5628 31.4464V31.4464ZM53.5911 81.4005L53.7861 81.438V89.7851L53.5911 89.7477V81.4005ZM49.3573 80.5871L49.6156 80.6368V88.9839L49.3573 88.9343V80.5871ZM46.7964 80.0951L47.0082 80.1358V88.483L46.7964 88.4423V80.0951ZM55.057 81.6821L55.9042 81.8449V90.1921L55.057 90.0293V81.6821ZM54.0671 81.492L54.5624 81.5871V89.9343L54.0671 89.8391V81.492ZM52.3583 81.1637L52.5702 81.2044V89.5515L52.3583 89.5108V81.1637ZM51.2444 80.9497L52.0916 81.1124V89.4596L51.2444 89.2968V80.9497V80.9497ZM50.1853 80.7462L50.6089 80.8276V89.1748L50.1853 89.0934V80.7462ZM48.0774 80.3412L49.1107 80.5398V88.8869L48.0774 88.6884V80.3412ZM45.8816 79.9194L46.4576 80.03V88.3772L45.8816 88.2666V79.9194ZM45.0467 79.759L45.2585 79.7997V88.1468L45.0467 88.1062V79.759ZM43.6192 79.4847L44.4665 79.6475V87.9947L43.6192 87.8319V79.4847V79.4847ZM0.570375 70.5785C0.0337774 70.5785 0.0337774 69.7673 0.570375 69.7673H21.0599C21.5965 69.7673 21.5965 70.5785 21.0599 70.5785H0.570375ZM4.20752 66.572C3.67092 66.572 3.67092 65.7608 4.20752 65.7608H23.428C23.9646 65.7608 23.9646 66.572 23.428 66.572H4.20752ZM0.402448 62.5655C-0.134149 62.5655 -0.134149 61.7543 0.402448 61.7543H21.2278C21.7644 61.7543 21.7644 62.5655 21.2278 62.5655H0.402448ZM20.6489 12.8252L20.8804 12.157C21.4161 12.4439 21.8031 12.6773 22.0468 12.8601C21.9828 12.2434 21.9483 11.8195 21.9448 11.5921L22.6809 11.729C22.6705 12.0586 22.6325 12.4656 22.5634 12.951C22.9107 12.8421 23.3081 12.7545 23.7557 12.6916L23.9872 13.446C23.5604 13.5075 23.1423 13.5242 22.731 13.4942C22.9367 13.7093 23.2252 14.0808 23.5984 14.6055L22.9936 14.9209C22.7984 14.62 22.5669 14.2161 22.3008 13.7114C22.0502 14.1372 21.8308 14.4572 21.6424 14.6696L21.048 14.1313C21.4368 13.7242 21.7167 13.4602 21.8843 13.3367C21.4506 13.1719 21.0394 13.0009 20.6489 12.8252V12.8252ZM24.6836 13.5755L24.9151 12.9072C25.4508 13.1941 25.8378 13.4275 26.0815 13.6103C26.0175 12.9937 25.983 12.5697 25.9795 12.3423L26.7156 12.4792C26.7052 12.8089 26.6672 13.2158 26.5981 13.7012C26.9454 13.5923 27.3428 13.5047 27.7904 13.4419L28.0219 14.1962C27.5951 14.2577 27.1769 14.2744 26.7657 14.2444C26.9714 14.4596 27.2599 14.8311 27.6331 15.3557L27.0284 15.6711C26.8331 15.3702 26.6016 14.9664 26.3355 14.4616C26.0849 14.8875 25.8655 15.2075 25.6771 15.4199L25.0827 14.8816C25.4715 14.4745 25.7514 14.2104 25.9191 14.0869C25.4853 13.9221 25.0741 13.7511 24.6836 13.5755V13.5755ZM28.7183 14.3257L28.9498 13.6575C29.4855 13.9443 29.8725 14.1778 30.1162 14.3605C30.0522 13.7439 30.0177 13.32 30.0142 13.0925L30.7503 13.2294C30.74 13.5591 30.7019 13.9661 30.6328 14.4515C30.9802 14.3425 31.3776 14.2549 31.8251 14.1921L32.0566 14.9464C31.6298 15.008 31.2117 15.0247 30.8004 14.9946C31.0061 15.2098 31.2946 15.5813 31.6678 16.106L31.0631 16.4213C30.8678 16.1205 30.6363 15.7166 30.3702 15.2118C30.1196 15.6377 29.9002 15.9577 29.7119 16.1701L29.1174 15.6318C29.5062 15.2247 29.7862 14.9607 29.9538 14.8372C29.52 14.6723 29.1088 14.5014 28.7183 14.3257V14.3257ZM32.753 15.0759L32.9845 14.4077C33.5202 14.6946 33.9072 14.928 34.1509 15.1108C34.0869 14.4941 34.0524 14.0702 34.0489 13.8428L34.785 13.9796C34.7747 14.3093 34.7366 14.7163 34.6675 15.2017C35.0149 15.0928 35.4123 15.0052 35.8598 14.9423L36.0913 15.6966C35.6645 15.7582 35.2464 15.7749 34.8351 15.7448C35.0408 15.96 35.3293 16.3315 35.7025 16.8562L35.0978 17.1715C34.9025 16.8707 34.671 16.4668 34.4049 15.9621C34.1543 16.3879 33.9349 16.7079 33.7466 16.9203L33.1521 16.382C33.5409 15.9749 33.8209 15.7109 33.9885 15.5874C33.5548 15.4226 33.1435 15.2516 32.753 15.0759ZM36.7877 15.8262L37.0192 15.1579C37.5549 15.4448 37.9419 15.6783 38.1856 15.861C38.1217 15.2443 38.0871 14.8204 38.0836 14.593L38.8197 14.7299C38.8094 15.0595 38.7713 15.4665 38.7022 15.9519C39.0496 15.843 39.447 15.7554 39.8945 15.6925L40.126 16.4469C39.6993 16.5084 39.2811 16.5251 38.8699 16.4951C39.0755 16.7103 39.364 17.0818 39.7373 17.6065L39.1325 17.9218C38.9373 17.6209 38.7057 17.2171 38.4396 16.7123C38.1891 17.1382 37.9696 17.4582 37.7813 17.6705L37.1869 17.1322C37.5756 16.7252 37.8556 16.4611 38.0232 16.3377C37.5895 16.1728 37.1782 16.0018 36.7877 15.8262V15.8262ZM40.8224 16.5764L41.054 15.9081C41.5896 16.195 41.9766 16.4285 42.2203 16.6112C42.1564 15.9946 42.1218 15.5707 42.1183 15.3432L42.8545 15.4801C42.8441 15.8098 42.8061 16.2168 42.737 16.7022C43.0843 16.5932 43.4817 16.5056 43.9292 16.4428L44.1607 17.1971C43.734 17.2587 43.3158 17.2754 42.9046 17.2453C43.1102 17.4605 43.3987 17.832 43.772 18.3567L43.1672 18.672C42.972 18.3712 42.7404 17.9673 42.4743 17.4625C42.2238 17.8884 42.0043 18.2084 41.816 18.4208L41.2216 17.8824C41.6104 17.4754 41.8903 17.2113 42.0579 17.0879C41.6242 16.923 41.2129 16.7521 40.8224 16.5764V16.5764ZM44.8571 17.3266L45.0887 16.6584C45.6243 16.9453 46.0114 17.1787 46.255 17.3615C46.1911 16.7448 46.1565 16.3209 46.1531 16.0935L46.8892 16.2303C46.8788 16.56 46.8408 16.967 46.7717 17.4524C47.119 17.3434 47.5164 17.2558 47.9639 17.193L48.1955 17.9474C47.7687 18.0089 47.3505 18.0256 46.9393 17.9955C47.1449 18.2107 47.4335 18.5822 47.8067 19.1069L47.2019 19.4222C47.0067 19.1214 46.7751 18.7175 46.509 18.2128C46.2585 18.6387 46.039 18.9586 45.8507 19.171L45.2563 18.6327C45.6451 18.2257 45.925 17.9615 46.0926 17.8381C45.6589 17.6733 45.2476 17.5023 44.8571 17.3266V17.3266ZM48.8918 18.0768L49.1234 17.4086C49.659 17.6955 50.0461 17.9289 50.2897 18.1117C50.2258 17.4951 50.1912 17.0711 50.1878 16.8437L50.9239 16.9806C50.9135 17.3103 50.8755 17.7172 50.8064 18.2026C51.1537 18.0937 51.5511 18.006 51.9986 17.9432L52.2302 18.6976C51.8034 18.7591 51.3852 18.7758 50.974 18.7458C51.1796 18.961 51.4682 19.3324 51.8414 19.8572L51.2366 20.1725C51.0414 19.8716 50.8098 19.4678 50.5437 18.963C50.2932 19.3889 50.0737 19.7088 49.8854 19.9212L49.291 19.3829C49.6798 18.9759 49.9597 18.7118 50.1273 18.5883C49.6936 18.4235 49.2823 18.2525 48.8918 18.0768V18.0768ZM52.9266 18.8271L53.1581 18.1588C53.6937 18.4457 54.0808 18.6792 54.3244 18.8619C54.2605 18.2453 54.226 17.8214 54.2225 17.5939L54.9586 17.7308C54.9482 18.0605 54.9102 18.4674 54.8411 18.9529C55.1884 18.8439 55.5858 18.7563 56.0334 18.6935L56.2649 19.4478C55.8381 19.5093 55.4199 19.5261 55.0087 19.496C55.2143 19.7112 55.5029 20.0827 55.8761 20.6074L55.2713 20.9227C55.0761 20.6219 54.8445 20.218 54.5784 19.7132C54.3279 20.1391 54.1085 20.4591 53.9201 20.6715L53.3257 20.1331C53.7145 19.7261 53.9944 19.462 54.162 19.3385C53.7283 19.1737 53.317 19.0028 52.9266 18.8271ZM56.9613 19.5773L57.1928 18.9091C57.7285 19.1959 58.1155 19.4294 58.3591 19.6122C58.2952 18.9955 58.2607 18.5716 58.2572 18.3442L58.9933 18.481C58.9829 18.8107 58.9449 19.2177 58.8758 19.7031C59.2231 19.5942 59.6205 19.5065 60.0681 19.4437L60.2996 20.198C59.8728 20.2596 59.4546 20.2763 59.0434 20.2462C59.249 20.4614 59.5376 20.8329 59.9108 21.3576L59.306 21.6729C59.1108 21.3721 58.8792 20.9682 58.6132 20.4635C58.3626 20.8893 58.1432 21.2093 57.9548 21.4217L57.3604 20.8834C57.7492 20.4763 58.0291 20.2123 58.1967 20.0888C57.763 19.924 57.3518 19.753 56.9613 19.5773V19.5773ZM60.996 20.3275L61.2275 19.6593C61.7632 19.9462 62.1502 20.1796 62.3939 20.3624C62.3299 19.7457 62.2954 19.3218 62.2919 19.0944L63.028 19.2312C63.0176 19.5609 62.9796 19.9679 62.9105 20.4533C63.2578 20.3444 63.6552 20.2568 64.1028 20.1939L64.3343 20.9483C63.9075 21.0098 63.4893 21.0265 63.0781 20.9965C63.2837 21.2117 63.5723 21.5831 63.9455 22.1079L63.3407 22.4232C63.1455 22.1223 62.914 21.7184 62.6478 21.2137C62.3973 21.6395 62.1779 21.9595 61.9895 22.1719L61.3951 21.6336C61.7839 21.2265 62.0638 20.9625 62.2314 20.839C61.7977 20.6742 61.3865 20.5032 60.996 20.3275V20.3275ZM65.0307 21.0778L65.2622 20.4095C65.7979 20.6964 66.1849 20.9299 66.4286 21.1126C66.3646 20.496 66.3301 20.0721 66.3266 19.8446L67.0627 19.9815C67.0523 20.3112 67.0143 20.7181 66.9452 21.2035C67.2925 21.0946 67.6899 21.007 68.1375 20.9442L68.369 21.6985C67.9422 21.76 67.5241 21.7767 67.1128 21.7467C67.3185 21.9619 67.607 22.3334 67.9802 22.8581L67.3754 23.1734C67.1802 22.8725 66.9487 22.4687 66.6826 21.9639C66.432 22.3898 66.2126 22.7098 66.0242 22.9221L65.4298 22.3838C65.8186 21.9768 66.0985 21.7127 66.2661 21.5893C65.8324 21.4244 65.4212 21.2535 65.0307 21.0778V21.0778ZM16.201 2.91749C15.677 2.81124 15.8396 2.01904 16.3635 2.12531L17.8082 2.41998C18.3322 2.52625 18.1696 3.31843 17.6457 3.21216L16.201 2.91749ZM18.8387 3.47768C18.3147 3.3714 18.4772 2.57923 19.0012 2.6855L19.3296 2.75244C19.8535 2.85871 19.691 3.65089 19.167 3.54462L18.8387 3.47768ZM16.2042 28.2261C15.9833 28.1832 15.8392 27.9703 15.8823 27.7507C15.9254 27.5311 16.1395 27.3878 16.3604 27.4307L18.6436 27.8773C18.8645 27.9202 19.0086 28.133 18.9655 28.3526C18.9224 28.5723 18.7084 28.7156 18.4875 28.6727L16.2042 28.2261V28.2261ZM18.4141 17.3229L20.2908 17.6335L20.2878 20.1636L23.2221 18.1401L71.7658 27.2137V17.7348L18.4097 7.91112L18.4141 17.3229V17.3229ZM18.935 18.7769L17.0602 18.4667L17.0546 6.29101L25.1248 7.77678L25.1339 3.17233C25.1356 2.25919 25.2258 2.03325 24.2755 1.84583L11.0812 -0.756603C10.6841 -0.834871 10.4241 -0.574596 10.4313 -0.188231V27.5102C10.4313 28.0075 10.8531 28.5228 11.3441 28.6204L23.5596 31.0498C24.0876 31.1433 25.0779 31.4613 25.0795 30.6544L25.1008 19.8636L23.5278 19.5695L18.9304 22.74L18.935 18.7769V18.7769ZM26.4787 8.02605L27.5127 8.21642V2.25077C27.5127 0.763255 27.0266 0.172882 25.5624 -0.115964L13.0518 -2.58425C12.3739 -2.71794 11.4842 -2.6816 11.0627 -2.1184L24.5357 0.5202C26.2033 0.849053 26.4913 1.61181 26.4883 3.17233L26.4787 8.02605V8.02605ZM28.8725 8.46672C43.6235 11.1825 58.3746 13.8982 73.1256 16.6145V28.8402L28.8725 20.5686V29.7728C28.8725 31.3896 27.87 32.8297 26.1449 32.8297C25.3415 32.8297 24.3102 32.5775 23.4924 32.4149L11.0785 29.946C9.95422 29.7225 9.07158 28.6497 9.07158 27.5102V-0.188231C9.07158 -2.63432 10.6761 -4.42997 13.3121 -3.90988L25.8227 -1.44159C27.9306 -1.02576 28.8725 0.109717 28.8725 2.25077V8.46672V8.46672ZM27.5127 20.3144L26.4548 20.1166L26.4339 30.6544C26.4334 30.9419 26.3849 31.2083 26.2691 31.4728C27.1558 31.4022 27.5127 30.5668 27.5127 29.7728V20.3144V20.3144ZM77.2559 58.2895C76.7047 58.9833 75.6423 58.1488 76.1936 57.455L79.1893 53.6923L82.0113 56.691C82.6191 57.3371 81.6312 58.256 81.0234 57.61L79.2756 55.7528L77.2559 58.2895ZM68.812 60.895C68.2608 61.5888 67.1984 60.7543 67.7497 60.0605L70.7454 56.2979L73.5674 59.2966C74.1753 59.9426 73.1873 60.8615 72.5795 60.2155L70.8317 58.3583L68.812 60.895V60.895ZM79.8933 74.521C79.8933 75.4102 78.5336 75.4102 78.5336 74.521V59.2618C78.5336 58.3726 79.8933 58.3726 79.8933 59.2618V74.521ZM71.4087 77.0701C71.4087 77.9593 70.049 77.9593 70.049 77.0701V62.1746C70.049 61.2853 71.4087 61.2853 71.4087 62.1746V77.0701ZM33.0372 43.8948L59.7023 34.7925L47.5045 32.8033C47.0359 32.7269 46.9355 32.7034 46.4485 32.8649L19.7439 41.7152L33.0372 43.8948V43.8948ZM62.5344 35.2544L35.8643 44.3584L43.1371 45.5509L69.9351 36.4613L62.5344 35.2544ZM72.7739 36.9242L45.9709 46.0155L58.4242 48.0574C59.1456 48.1757 59.3735 48.2077 60.0714 47.9777L86.7152 39.1978L72.7739 36.9242ZM42.2019 46.7735L33.4039 45.3284V59.042L37.9088 56.9563L42.2019 60.3454V46.7735V46.7735ZM59.9818 93.4698L87.9844 81.7858C88.7125 81.482 88.6402 81.1619 88.6402 80.4411V39.9868L59.9818 49.4107V93.4698V93.4698Z" fill="#0084B4"/>
</svg>
