<svg width="90" height="90" viewBox="0 0 90 90" fill="none" xmlns="http://www.w3.org/2000/svg">
<path d="M35.6464 69.7166L36 70.0701L36.3536 69.7166L75.5351 30.5351L75.8886 30.1815L75.5351 29.8279L69.1721 23.4649L68.8185 23.1114L68.4649 23.4649L36 55.9299L21.5351 41.4649L21.1815 41.1114L20.8279 41.4649L14.4649 47.8279L14.1114 48.1815L14.4649 48.5351L35.6464 69.7166ZM0.5 45C0.5 20.4226 20.4226 0.5 45 0.5C69.5774 0.5 89.5 20.4226 89.5 45C89.5 69.5774 69.5774 89.5 45 89.5C20.4226 89.5 0.5 69.5774 0.5 45Z" stroke="#0084B4"/>
</svg>
