<svg width="90" height="90" viewBox="0 0 90 90" fill="none" xmlns="http://www.w3.org/2000/svg">
<path d="M27.1666 4.51272L26.773 4.84297C24.6858 6.59385 23.2297 7.87742 22.1914 9.39656C21.165 10.8982 20.528 12.6612 20.1626 15.3927C19.6295 19.4148 20.1489 23.9863 21.3959 27.8629L21.4611 28.0655L21.3603 28.2529C20.5956 29.6745 20.3484 31.5814 20.3484 33.2329C20.3484 35.5898 21.5838 38.5877 23.2121 41.537C24.8127 44.4362 26.7434 47.2033 28.0916 49.1357L28.1325 49.1942C31.802 54.4536 36.4295 56.8716 40.976 56.9308C45.5307 56.9901 50.0989 54.6835 53.642 50.3027L53.6521 50.2902L53.663 50.2783C57.9371 45.6378 61.1302 41.5098 62.6902 35.4598C63.1828 33.5444 63.5341 31.4131 63.7595 28.9498C63.8085 28.4046 63.7102 27.9813 63.5088 27.6755C63.3116 27.3762 62.9801 27.1348 62.4508 27.0134L62.0122 26.9127L62.0662 26.466C62.4079 23.6385 62.9107 18.9631 62.2586 14.9631C61.9328 12.9641 61.3257 11.1844 60.3091 9.89288C59.3102 8.62379 57.8952 7.79757 55.8613 7.71533H55.861M27.1666 4.51272L55.8712 7.21533L55.861 7.47578L55.8518 7.71134L55.8518 7.71145L55.8516 7.71495C55.8516 7.71495 55.8517 7.71495 55.8517 7.71495C55.8548 7.71507 55.8579 7.71521 55.861 7.71533M27.1666 4.51272L26.8258 4.12821C25.7558 2.92133 24.7008 1.71502 23.644 0.5M27.1666 4.51272L23.644 0.5M55.861 7.71533H55.8517L55.8517 7.71524L55.6533 7.71155H55.648H55.6464L55.4978 7.71249L55.2134 7.78273L55.1683 7.71456M55.861 7.71533L55.1683 7.71456M55.1683 7.71456L54.9459 7.71596V7.37984C53.0507 4.7177 51.7218 3.03123 50.0258 1.98315C48.3438 0.943736 46.2417 0.5 42.7235 0.5H42.6841H42.6446H42.6052H42.5658H42.5264H42.487H42.4476H42.4082H42.3688H42.3294H42.29H42.2506H42.2111H42.1717H42.1323H42.0929H42.0535H42.0141H41.9747H41.9353H41.8959H41.8565H41.8171H41.7776H41.7382H41.6988H41.6594H41.62H41.5806H41.5412H41.5018H41.4624H41.423H41.3836H41.3442H41.3047H41.2653H41.2259H41.1865H41.1471H41.1077H41.0683H41.0289H40.9895H40.9501H40.9107H40.8713H40.8318H40.7924H40.753H40.7136H40.6742H40.6348H40.5954H40.556H40.5166H40.4772H40.4378H40.3984H40.359H40.3195H40.2801H40.2407H40.2013H40.1619H40.1225H40.0831H40.0437H40.0043H39.9649H39.9255H39.8861H39.8467H39.8072H39.7678H39.7284H39.689H39.6496H39.6102H39.5708H39.5314H39.492H39.4526H39.4132H39.3738H39.3344H39.2949H39.2555H39.2161H39.1767H39.1373H39.0979H39.0585H39.0191H38.9797H38.9403H38.9009H38.8615H38.8221H38.7827H38.7432H38.7038H38.6644H38.625H38.5856H38.5462H38.5068H38.4674H38.428H38.3886H38.3492H38.3098H38.2704H38.231H38.1916H38.1521H38.1127H38.0733H38.0339H37.9945H37.9551H37.9157H37.8763H37.8369H37.7975H37.7581H37.7187H37.6793H37.6399H37.6005H37.561H37.5216H37.4822H37.4428H37.4034H37.364H37.3246H37.2852H37.2458H37.2064H37.167H37.1276H37.0882H37.0488H37.0094H36.97H36.9305H36.8911H36.8517H36.8123H36.7729H36.7335H36.6941H36.6547H36.6153H36.5759H36.5365H36.4971H36.4577H36.4183H36.3789H36.3395H36.3H36.2606H36.2212H36.1818H36.1424H36.103H36.0636H36.0242H35.9848H35.9454H35.906H35.8666H35.8272H35.7878H35.7484H35.709H35.6695H35.6301H35.5907H35.5513H35.5119H35.4725H35.4331H35.3937H35.3543H35.3149H35.2755H35.2361H35.1967H35.1573H35.1179H35.0785H35.0391H34.9996H34.9602H34.9208H34.8814H34.842H34.8026H34.7632H34.7238H34.6844H34.645H34.6056H34.5662H34.5268H34.4874H34.448H34.4086H34.3692H34.3298H34.2903H34.2509H34.2115H34.1721H34.1327H34.0933H34.0539H34.0145H33.9751H33.9357H33.8963H33.8569H33.8175H33.7781H33.7387H33.6993H33.6599H33.6204H33.581H33.5416H33.5022H33.4628H33.4234H33.384H33.3446H33.3052H33.2658H33.2264H33.187H33.1476H33.1082H33.0688H33.0294H32.99H32.9506H32.9111H32.8717H32.8323H32.7929H32.7535H32.7141H32.6747H32.6353H32.5959H32.5565H32.5171H32.4777H32.4383H32.3989H32.3595H32.3201H32.2807H32.2412H32.2018H32.1624H32.123H32.0836H32.0442H32.0048H31.9654H31.926H31.8866H31.8472H31.8078H31.7684H31.729H31.6896H31.6502H31.6108H31.5714H31.5319H31.4925H31.4531H31.4137H31.3743H31.3349H31.2955H31.2561H31.2167H31.1773H31.1379H31.0985H31.0591H31.0197H30.9803H30.9409H30.9015H30.862H30.8226H30.7832H30.7438H30.7044H30.665H30.6256H30.5862H30.5468H30.5074H30.468H30.4286H30.3892H30.3498H30.3104H30.271H30.2316H30.1922H30.1527H30.1133H30.0739H30.0345H29.9951H29.9557H29.9163H29.8769H29.8375H29.7981H29.7587H29.7193H29.6799H29.6405H29.6011H29.5617H29.5223H29.4828H29.4434H29.404H29.3646H29.3252H29.2858H29.2464H29.207H29.1676H29.1282H29.0888H29.0494H29.01H28.9706H28.9312H28.8918H28.8523H28.8129H28.7735H28.7341H28.6947H28.6553H28.6159H28.5765H28.5371H28.4977H28.4583H28.4189H28.3795H28.3401H28.3007H28.2613H28.2218H28.1824H28.143H28.1036H28.0642H28.0248H27.9854H27.946H27.9066H27.8672H27.8278H27.7884H27.749H27.7096H27.6702H27.6308H27.5913H27.5519H27.5125H27.4731H27.4337H27.3943H27.3549H27.3155H27.2761H27.2367H27.1973H27.1579H27.1185H27.0791H27.0396H27.0002H26.9608H26.9214H26.882H26.8426H26.8032H26.7638H26.7244H26.685H26.6456H26.6062H26.5668H26.5274H26.488H26.4485H26.4091H26.3697H26.3303H26.2909H26.2515H26.2121H26.1727H26.1333H26.0939H26.0545H26.0151H25.9757H25.9363H25.8968H25.8574H25.818H25.7786H25.7392H25.6998H25.6604H25.621H25.5816H25.5422H25.5028H25.4634H25.424H25.3846H25.3451H25.3057H25.2663H25.2269H25.1875H25.1481H25.1087H25.0693H25.0299H24.9905H24.9511H24.9117H24.8722H24.8328H24.7934H24.754H24.7146H24.6752H24.6358H24.5964H24.557H24.5176H24.4782H24.4388H24.3994H24.3599H24.3205H24.2811H24.2417H24.2023H24.1629H24.1235H24.0841H24.0447H24.0053H23.9659H23.9265H23.887H23.8476H23.8082H23.7688H23.7294H23.69H23.6506H23.644M55.1683 7.71456L23.644 0.5M71.5452 45.6146L71.545 45.6144C71.3239 45.3958 71.1013 45.335 70.9067 45.3477C70.6995 45.3612 70.4862 45.4615 70.3176 45.6281C70.1489 45.7948 70.0496 46.0034 70.0363 46.203C70.0238 46.3893 70.0827 46.6061 70.304 46.8247L75.6322 52.0878L71.5452 45.6146ZM71.5452 45.6146L75.852 49.8689L76.2132 50.2257M71.5452 45.6146L76.2132 50.2257M76.2132 50.2257L76.5644 49.859M76.2132 50.2257L76.5644 49.859M76.5644 49.859L87.9522 37.9706L87.9523 37.9707M76.5644 49.859L87.9523 37.9707M87.9523 37.9707L87.9609 37.9612M87.9523 37.9707L87.9609 37.9612M87.9609 37.9612C88.1691 37.7324 88.3873 37.6604 88.5818 37.663C88.7889 37.6657 89.0069 37.7547 89.1839 37.9121C89.3611 38.0696 89.4711 38.2724 89.495 38.4705C89.5171 38.6543 89.4706 38.8718 89.2647 39.0996L76.9592 51.994L76.9466 52.0072M87.9609 37.9612L76.9466 52.0072M76.9466 52.0072L76.935 52.0213M76.9466 52.0072L76.935 52.0213M76.935 52.0213C76.6084 52.4178 76.0007 52.4506 75.6326 52.0882L76.935 52.0213ZM55.6579 7.21281L55.6493 7.6723L55.6579 7.21281ZM84.6594 38.3905L76.1757 47.2475L73.0258 44.1349L73.0258 44.1348C72.3512 43.4685 71.562 43.2014 70.7983 43.25C70.047 43.2979 69.3555 43.6484 68.8433 44.1544C68.3313 44.6603 67.9743 45.3457 67.9257 46.0932C67.8762 46.8539 68.1498 47.6369 68.8248 48.3033L74.1519 53.5679L74.1522 53.5682C75.3609 54.7607 77.3955 54.7034 78.5076 53.3993L87.9812 43.4719C88.3881 44.6771 88.6084 45.9666 88.6084 47.3078C88.6084 54.0115 83.1047 59.4558 76.303 59.4558C69.5013 59.4558 63.9988 54.0116 63.9988 47.3078C63.9988 40.604 69.5013 35.1598 76.303 35.1598C79.5306 35.1598 82.4651 36.3852 84.6594 38.3905ZM84.0893 88.9666C84.1465 89.1674 84.203 89.3424 84.2591 89.4949H42.7235H0.570498C0.551183 89.3534 0.530511 89.1355 0.51677 88.8086C0.462888 87.5265 0.519356 84.7746 0.975185 78.923C1.20204 76.0112 1.58452 73.9581 2.33979 72.3458C3.08592 70.753 4.2145 69.5523 6.0136 68.3858C7.8291 67.2086 10.3025 66.0816 13.723 64.6304C14.6404 64.2412 15.6246 63.8292 16.68 63.3874C19.528 62.1952 22.8941 60.786 26.8642 59.0225L27.0321 59.0043L34.4509 84.6061L34.8278 85.9068L35.3866 84.6732L39.6704 75.216L39.7149 75.1176V75.0097V66.5541V66.0541H39.2149H38.5559C37.7776 66.0541 37.1515 65.4269 37.1515 64.673V61.7473C37.1515 60.9934 37.7776 60.3662 38.5559 60.3662H45.2383C46.0151 60.3662 46.6414 60.9932 46.6414 61.7473V64.673C46.6414 65.4271 46.0151 66.0541 45.2383 66.0541H44.5129H44.0129V66.5541V75.0097V75.1176L44.0574 75.216L48.3412 84.6732L48.9 85.9068L49.2769 84.6061L56.6957 59.0043L56.8636 59.0225C60.8337 60.786 64.1998 62.1952 67.0478 63.3874C68.1032 63.8292 69.0874 64.2412 70.0048 64.6304C73.4253 66.0816 75.8987 67.2086 77.7142 68.3858C79.5133 69.5523 80.6419 70.753 81.388 72.3458C82.1432 73.9581 82.5257 76.0112 82.7526 78.923C83.2089 84.7808 83.7001 87.601 84.0893 88.9666ZM0.615048 89.7209C0.620189 89.7315 0.620164 89.7342 0.6164 89.7245C0.615976 89.7234 0.615525 89.7222 0.615048 89.7209ZM45.7596 17.5276L45.7593 17.5276C45.3355 17.4753 44.7791 17.5542 44.1953 17.686C43.5961 17.8212 42.9106 18.0262 42.2034 18.2646C40.7881 18.7417 39.2522 19.3641 38.0825 19.867L38.0823 19.8671C35.9905 20.7677 34.5176 20.9527 33.0259 20.9878C32.6265 20.9972 32.2179 20.9954 31.7911 20.9934C30.6243 20.9882 29.3212 20.9824 27.6974 21.2035C26.9928 21.2991 26.5012 21.6793 26.1755 22.1929C25.8635 22.6847 25.7049 23.2942 25.6106 23.885C25.5252 24.4202 25.4864 24.9855 25.4516 25.4926C25.4477 25.549 25.4439 25.6046 25.4401 25.6594C25.4003 26.2293 25.3602 26.6868 25.2731 27.0065C25.2278 27.1722 25.1143 27.317 24.8537 27.5502C24.8033 27.5954 24.7471 27.6439 24.6867 27.6961C24.4573 27.8944 24.1662 28.146 23.8924 28.4673C23.1635 29.3227 22.5491 30.6558 22.5491 33.2329C22.5491 34.3078 22.8771 35.551 23.3789 36.839C23.8834 38.1342 24.5783 39.511 25.344 40.8638C26.8754 43.5689 28.7129 46.2165 29.9382 47.9747C33.0618 52.4606 36.9261 54.7603 40.8938 54.858C44.8536 54.9555 48.7852 52.8564 52.0466 48.8205C55.986 44.5415 59.099 40.6571 60.5781 34.8721C60.9746 33.3223 61.2694 31.6283 61.4796 29.7353L61.555 29.0568L60.8853 29.1897C59.9561 29.3742 59.3245 29.3542 58.882 29.2224C58.4583 29.0962 58.1705 28.8567 57.9405 28.5074C57.6989 28.1407 57.5229 27.6555 57.3482 27.0444C57.2858 26.826 57.2218 26.5842 57.1543 26.3293C57.0432 25.9096 56.9227 25.4544 56.7845 25.0102C56.3242 23.5305 55.5923 21.888 53.9285 20.4979C52.2707 19.1128 49.7393 18.0208 45.7596 17.5276Z" stroke="#0084B4"/>
</svg>
