<svg width="90" height="90" viewBox="0 0 90 90" fill="none" xmlns="http://www.w3.org/2000/svg">
<path d="M59.9102 56.9637L60.0555 57.1038H60.2573H64.1151L89.2932 82.3324L82.3324 89.2932L57.1038 64.1151V60.2573V60.0555L56.9637 59.9102L55.5743 58.4694L55.2466 58.1295L54.8885 58.4373C49.1094 63.4053 41.6082 66.3954 33.4477 66.3954C15.2504 66.3954 0.5 51.645 0.5 33.4477C0.5 15.2504 15.2504 0.5 33.4477 0.5C51.645 0.5 66.3954 15.2504 66.3954 33.4477C66.3954 41.6082 63.4053 49.1094 58.4373 54.8885L58.1295 55.2466L58.4694 55.5743L59.9102 56.9637ZM9.7916 33.4477C9.7916 46.5369 20.3585 57.1038 33.4477 57.1038C46.5369 57.1038 57.1038 46.5369 57.1038 33.4477C57.1038 20.3585 46.5369 9.7916 33.4477 9.7916C20.3585 9.7916 9.7916 20.3585 9.7916 33.4477Z" stroke="#0084B4"/>
</svg>
